<?xml version="1.0" encoding="utf-8"?>
<!-- Generator: Adobe Illustrator 17.1.0, SVG Export Plug-In . SVG Version: 6.00 Build 0)  -->
<!DOCTYPE svg PUBLIC "-//W3C//DTD SVG 1.0//EN" "http://www.w3.org/TR/2001/REC-SVG-20010904/DTD/svg10.dtd">
<svg version="1.0" id="graphic" xmlns="http://www.w3.org/2000/svg" xmlns:xlink="http://www.w3.org/1999/xlink" x="0px" y="0px"
	 width="72.8px" height="62.8px" viewBox="0 0 72.8 62.8" enable-background="new 0 0 72.8 62.8" xml:space="preserve">
<circle fill="#ABE4F0" cx="23" cy="23" r="23"/>
<g>
	<polygon fill="#FFFFFF" points="22.6,24.2 26.5,24.2 24.2,27.2 27.2,27.2 20.3,36.5 18.8,36.5 22.6,29.6 19.5,29.6 	"/>
</g>
<path fill="#FFFFFF" d="M33.8,17.2c-0.8,0-1.6,0.1-2.4,0.5c-1.4-1.6-3.6-2.5-5.7-2.4c-1.1-3.4-4.1-5.8-7.6-5.8
	c-4.5,0-8.2,3.6-8.2,8.1C7.7,18.6,6,21,6,23.4c0,3.4,2.8,6.2,6.2,6.2h4.6c0.4-0.8,0.9-1.5,1.4-2.3h-6c-2.2,0-3.9-1.7-3.9-3.9
	c0-1.8,1.4-3.4,3.1-3.9l0.7,1.5l0.9-0.3c-0.4-1-0.8-2-0.8-3.2c0-3.2,2.6-5.8,5.9-5.8c3.2,0,5.6,3,5.6,6.2c2.7-1.2,6.1,0.2,7,3.1
	c0.7-0.9,1.9-1.5,3.1-1.5c2.1,0,3.9,1.7,3.9,3.9c0,2.1-1.7,3.9-3.9,3.9h-3.6c-0.6,0.8-1.2,1.5-1.8,2.3h5.4c3.4,0,6.2-2.8,6.2-6.2
	C40,20,37.2,17.2,33.8,17.2z"/>
<g>
	<g>
		<polyline fill="none" stroke="#ABE4F0" stroke-width="3" stroke-miterlimit="10" points="43.4,23 61,23 61,47 		"/>
		<g>
			<polygon fill="#ABE4F0" points="52,44.4 61,59.9 70,44.4 			"/>
		</g>
	</g>
</g>
</svg>
