<?xml version="1.0" encoding="utf-8"?>
<!-- Generator: Adobe Illustrator 17.1.0, SVG Export Plug-In . SVG Version: 6.00 Build 0)  -->
<!DOCTYPE svg PUBLIC "-//W3C//DTD SVG 1.0//EN" "http://www.w3.org/TR/2001/REC-SVG-20010904/DTD/svg10.dtd">
<svg version="1.0" id="graphic" xmlns="http://www.w3.org/2000/svg" xmlns:xlink="http://www.w3.org/1999/xlink" x="0px" y="0px"
	 width="73.4px" height="62.8px" viewBox="0 0 73.4 62.8" enable-background="new 0 0 73.4 62.8" xml:space="preserve">
<circle fill="#ABE4F0" cx="23" cy="23" r="23"/>
<g>
	<g>
		<g>
			<polygon fill="#FFFFFF" points="35.8,21.9 39.8,21.9 39.9,20.2 35.9,19.7 			"/>
			<polygon fill="#FFFFFF" points="29,11.8 28.9,7.7 27.2,7.6 26.7,11.6 			"/>
			<polygon fill="#FFFFFF" points="22.5,13.1 19.5,10.2 18.3,11.4 20.7,14.6 			"/>
			<polygon fill="#FFFFFF" points="34.5,15.4 37.3,12.5 36.1,11.3 33,13.7 			"/>
		</g>
		<path fill="#FFFFFF" d="M23.9,17.1c0.1-0.1,1.5-1.6,3.7-1.5c2.5,0.2,4.4,2.4,4.3,4.9c0,0.7-0.3,1.3-0.6,1.9c0,0.1,0.1,0.1,0.2,0.2
			c0.8-0.3,1.6-0.5,2.5-0.5c0.1-0.5,0.3-1,0.3-1.5c0.2-3.8-2.6-7-6.4-7.3c-2.2-0.1-4.2,0.8-5.6,2.3C22.8,16,23.4,16.6,23.9,17.1"/>
	</g>
	<path fill="#FFFFFF" d="M33.8,22.2c-0.8,0-1.6,0.1-2.4,0.5c-1.4-1.6-3.5-2.5-5.7-2.4c-1.1-3.3-4-5.7-7.5-5.7c-4.5,0-8.1,3.6-8.1,8
		c-2.3,1-3.9,3.3-3.9,5.7c0,3.4,2.7,6.1,6.1,6.1h21.4c3.4,0,6.1-2.7,6.1-6.1C39.9,24.9,37.2,22.2,33.8,22.2z M12.4,32.1
		c-2.1,0-3.8-1.7-3.8-3.8c0-1.8,1.4-3.4,3.1-3.8l0.7,1.5l0.9-0.3c-0.4-1-0.8-2-0.8-3.1c0-3.2,2.6-5.7,5.8-5.7c3.2,0,5.6,3,5.6,6.1
		c2.7-1.2,6.1,0.2,6.9,3.1c0.7-0.9,1.9-1.5,3.1-1.5c2.1,0,3.8,1.7,3.8,3.8c0,2.1-1.7,3.8-3.8,3.8H12.4z"/>
</g>
<g>
	<g>
		<polyline fill="none" stroke="#ABE4F0" stroke-width="3" stroke-miterlimit="10" points="43.4,23 61,23 61,47 		"/>
		<g>
			<polygon fill="#ABE4F0" points="52,44.4 61,59.9 70,44.4 			"/>
		</g>
	</g>
</g>
</svg>
